<svg xmlns="http://www.w3.org/2000/svg" xmlns:xlink="http://www.w3.org/1999/xlink" width="512" zoomAndPan="magnify" viewBox="0 0 384 262.499992" height="350" preserveAspectRatio="xMidYMid meet" version="1.0"><defs><clipPath id="baaa0a9780"><path d="M 0.363281 0 L 383.632812 0 L 383.632812 262 L 0.363281 262 Z M 0.363281 0 " clip-rule="nonzero"/></clipPath><clipPath id="e64a3bf29a"><path d="M 201 53 L 374 53 L 374 224.167969 L 201 224.167969 Z M 201 53 " clip-rule="nonzero"/></clipPath><clipPath id="385bc0b38e"><path d="M 9.644531 76 L 33 76 L 33 100 L 9.644531 100 Z M 9.644531 76 " clip-rule="nonzero"/></clipPath><clipPath id="900c237a4c"><path d="M 78 52 L 202 52 L 202 224.167969 L 78 224.167969 Z M 78 52 " clip-rule="nonzero"/></clipPath></defs><g clip-path="url(#baaa0a9780)"><path fill="#ffffff" d="M 0.363281 0 L 383.636719 0 L 383.636719 262 L 0.363281 262 Z M 0.363281 0 " fill-opacity="1" fill-rule="nonzero"/><path fill="#ffffff" d="M 0.363281 0 L 383.636719 0 L 383.636719 262 L 0.363281 262 Z M 0.363281 0 " fill-opacity="1" fill-rule="nonzero"/></g><path fill="#6002ee" d="M 327.359375 188.09375 L 255.484375 188.09375 L 247.589844 180.195312 L 230.699219 180.195312 C 229.910156 178.980469 228.542969 178.179688 226.988281 178.179688 C 224.539062 178.179688 222.554688 180.164062 222.554688 182.613281 C 222.554688 185.0625 224.539062 187.046875 226.988281 187.046875 C 228.578125 187.046875 229.972656 186.203125 230.75 184.945312 L 245.621094 184.945312 L 253.515625 192.84375 L 327.691406 192.84375 C 328.496094 193.933594 329.789062 194.648438 331.253906 194.648438 C 333.703125 194.648438 335.6875 192.664062 335.6875 190.214844 C 335.6875 187.765625 333.703125 185.78125 331.253906 185.78125 C 329.570312 185.78125 328.113281 186.714844 327.359375 188.09375 " fill-opacity="1" fill-rule="nonzero"/><path fill="#6002ee" d="M 309.265625 77.652344 L 271.535156 77.652344 L 262.054688 87.132812 L 251.648438 87.132812 L 241.6875 77.164062 L 229.824219 77.164062 C 229.046875 75.882812 227.644531 75.023438 226.035156 75.023438 C 223.585938 75.023438 221.601562 77.007812 221.601562 79.457031 C 221.601562 81.90625 223.585938 83.890625 226.035156 83.890625 C 227.574219 83.890625 228.925781 83.105469 229.722656 81.917969 L 239.71875 81.917969 L 249.683594 91.878906 L 264.023438 91.878906 L 273.5 82.402344 L 309.1875 82.402344 C 309.96875 83.671875 311.367188 84.523438 312.964844 84.523438 C 315.414062 84.523438 317.398438 82.539062 317.398438 80.089844 C 317.398438 77.640625 315.414062 75.65625 312.964844 75.65625 C 311.417969 75.65625 310.058594 76.453125 309.265625 77.652344 " fill-opacity="1" fill-rule="nonzero"/><g clip-path="url(#e64a3bf29a)"><path fill="#6002ee" d="M 373.890625 155.980469 C 373.667969 153.925781 371.976562 152.269531 369.921875 152.074219 C 368.085938 151.898438 366.457031 152.847656 365.632812 154.308594 L 290.570312 154.308594 L 282.558594 146.292969 L 291.644531 137.207031 L 324.402344 137.207031 C 325.261719 138.59375 326.859375 139.472656 328.652344 139.277344 C 330.6875 139.0625 332.34375 137.414062 332.570312 135.378906 C 332.867188 132.703125 330.78125 130.4375 328.164062 130.4375 C 326.609375 130.4375 325.238281 131.242188 324.449219 132.457031 L 289.675781 132.457031 L 278.214844 143.917969 L 223.902344 143.917969 C 219.113281 143.917969 215.234375 140.035156 215.234375 135.25 C 215.234375 130.460938 219.113281 126.578125 223.902344 126.578125 L 269.734375 126.578125 L 280.601562 115.710938 L 362.082031 115.710938 C 362.902344 116.859375 364.25 117.601562 365.773438 117.570312 C 368.101562 117.53125 370.054688 115.59375 370.117188 113.265625 C 370.1875 110.757812 368.175781 108.707031 365.6875 108.707031 C 364.03125 108.707031 362.589844 109.613281 361.832031 110.960938 L 278.632812 110.960938 L 267.765625 121.828125 L 223.902344 121.828125 C 219.113281 121.828125 215.234375 117.949219 215.234375 113.160156 C 215.234375 108.371094 219.113281 104.492188 223.902344 104.492188 L 290.316406 104.492188 L 300.589844 94.21875 L 326.539062 94.21875 C 327.398438 95.601562 329 96.480469 330.789062 96.289062 C 332.824219 96.070312 334.484375 94.421875 334.707031 92.386719 C 335.003906 89.714844 332.917969 87.445312 330.300781 87.445312 C 328.746094 87.445312 327.378906 88.253906 326.585938 89.46875 L 298.621094 89.46875 L 288.347656 99.742188 L 234.945312 99.742188 C 224.058594 99.742188 215.234375 90.914062 215.234375 80.027344 C 215.234375 69.140625 224.058594 60.316406 234.945312 60.316406 L 327.234375 60.316406 C 328.105469 61.679688 329.699219 62.542969 331.476562 62.34375 C 333.503906 62.121094 335.152344 60.472656 335.378906 58.445312 C 335.675781 55.769531 333.589844 53.503906 330.972656 53.503906 C 329.398438 53.503906 328.019531 54.328125 327.234375 55.5625 L 214.625 55.5625 L 206.46875 63.441406 C 205.007812 64.855469 203.121094 65.5625 201.230469 65.5625 L 201.230469 224.082031 C 203.902344 224.082031 206.574219 223.199219 208.785156 221.441406 C 214.074219 217.226562 220.640625 214.929688 227.402344 214.929688 L 327.511719 214.929688 C 328.378906 216.296875 329.976562 217.160156 331.757812 216.964844 C 333.785156 216.738281 335.433594 215.089844 335.65625 213.0625 C 335.953125 210.386719 333.867188 208.125 331.253906 208.125 C 329.675781 208.125 328.300781 208.945312 327.511719 210.179688 L 234.945312 210.179688 C 224.058594 210.179688 215.234375 201.355469 215.234375 190.46875 C 215.234375 179.582031 224.058594 170.753906 234.945312 170.753906 L 275.050781 170.753906 L 285.636719 181.34375 L 312.480469 181.34375 L 323.160156 170.664062 L 347.375 170.664062 C 348.253906 172.011719 349.839844 172.851562 351.605469 172.648438 C 353.625 172.414062 355.261719 170.773438 355.488281 168.753906 C 355.785156 166.078125 353.699219 163.8125 351.082031 163.8125 C 349.488281 163.8125 348.09375 164.652344 347.3125 165.917969 L 321.191406 165.917969 L 310.515625 176.59375 L 287.605469 176.59375 L 277.015625 166.003906 L 223.902344 166.003906 C 219.113281 166.003906 215.234375 162.121094 215.234375 157.335938 C 215.234375 152.550781 219.113281 148.667969 223.902344 148.667969 L 278.214844 148.667969 L 288.605469 159.058594 L 365.878906 159.058594 C 366.683594 160.183594 368 160.921875 369.488281 160.921875 C 372.105469 160.921875 374.191406 158.65625 373.890625 155.980469 " fill-opacity="1" fill-rule="nonzero"/></g><path fill="#d602ee" d="M 64.148438 130.121094 L 38.023438 130.121094 L 38.023438 103.996094 L 64.148438 103.996094 L 64.148438 130.121094 " fill-opacity="1" fill-rule="nonzero"/><g clip-path="url(#385bc0b38e)"><path fill="#d602ee" d="M 32.839844 99.601562 L 9.644531 99.601562 L 9.644531 76.40625 L 32.839844 76.40625 L 32.839844 99.601562 " fill-opacity="1" fill-rule="nonzero"/></g><path fill="#d602ee" d="M 64.148438 71.773438 L 46.8125 71.773438 L 46.8125 54.433594 L 64.148438 54.433594 L 64.148438 71.773438 " fill-opacity="1" fill-rule="nonzero"/><path fill="#d602ee" d="M 64.148438 168.519531 L 46.8125 168.519531 L 46.8125 151.179688 L 64.148438 151.179688 L 64.148438 168.519531 " fill-opacity="1" fill-rule="nonzero"/><g clip-path="url(#900c237a4c)"><path fill="#d602ee" d="M 165.914062 168.519531 L 148.578125 168.519531 L 148.578125 151.179688 L 165.914062 151.179688 Z M 148.105469 138.792969 L 121.980469 138.792969 L 121.980469 112.664062 L 148.105469 112.664062 Z M 117.148438 104.941406 L 99.8125 104.941406 L 99.8125 87.605469 L 117.148438 87.605469 Z M 110.183594 156.132812 L 92.847656 156.132812 L 92.847656 138.792969 L 110.183594 138.792969 Z M 131.242188 63.101562 L 148.578125 63.101562 L 148.578125 80.441406 L 131.242188 80.441406 Z M 195.992188 63.441406 C 195.992188 63.441406 139.910156 37.867188 78.589844 64.710938 L 78.589844 108.390625 L 92.847656 108.390625 L 92.847656 125.726562 L 78.589844 125.726562 L 78.589844 168.519531 L 97.242188 168.519531 L 97.242188 194.648438 L 78.589844 194.648438 L 78.589844 224.082031 C 122.691406 201.875 188.386719 217.226562 193.679688 221.441406 C 195.890625 223.199219 198.558594 224.082031 201.230469 224.082031 L 201.230469 65.5625 C 199.339844 65.5625 197.453125 64.855469 195.992188 63.441406 " fill-opacity="1" fill-rule="nonzero"/></g></svg>